solid ascii
  facet normal 0.000000e+000 0.000000e+000 1.000000e+000
    outer loop
      vertex   -1.200000e+002 2.765000e+002 1.200000e+001
      vertex   -1.400000e+002 2.765000e+002 1.200000e+001
      vertex   -1.200000e+002 2.615000e+002 1.200000e+001
    endloop
  endfacet
  facet normal 0.000000e+000 0.000000e+000 6.000000e-001
    outer loop
      vertex   -1.200000e+002 2.615000e+002 1.200000e+001
      vertex   -1.400000e+002 2.765000e+002 1.200000e+001
      vertex   -1.400000e+002 2.615000e+002 1.200000e+001
    endloop
  endfacet
  facet normal 0.000000e+000 0.000000e+000 -1.000000e+000
    outer loop
      vertex   -1.200000e+002 2.615000e+002 0.000000e+000
      vertex   -1.400000e+002 2.615000e+002 0.000000e+000
      vertex   -1.200000e+002 2.765000e+002 0.000000e+000
    endloop
  endfacet
  facet normal -0.000000e+000 0.000000e+000 -6.000000e-001
    outer loop
      vertex   -1.200000e+002 2.765000e+002 0.000000e+000
      vertex   -1.400000e+002 2.615000e+002 0.000000e+000
      vertex   -1.400000e+002 2.765000e+002 0.000000e+000
    endloop
  endfacet
  facet normal 0.000000e+000 -1.000000e+000 0.000000e+000
    outer loop
      vertex   -1.400000e+002 2.615000e+002 1.200000e+001
      vertex   -1.400000e+002 2.615000e+002 0.000000e+000
      vertex   -1.200000e+002 2.615000e+002 1.200000e+001
    endloop
  endfacet
  facet normal 0.000000e+000 -8.574929e-001 -0.000000e+000
    outer loop
      vertex   -1.200000e+002 2.615000e+002 1.200000e+001
      vertex   -1.400000e+002 2.615000e+002 0.000000e+000
      vertex   -1.200000e+002 2.615000e+002 0.000000e+000
    endloop
  endfacet
  facet normal -1.000000e+000 -0.000000e+000 -0.000000e+000
    outer loop
      vertex   -1.400000e+002 2.765000e+002 1.200000e+001
      vertex   -1.400000e+002 2.765000e+002 0.000000e+000
      vertex   -1.400000e+002 2.615000e+002 1.200000e+001
    endloop
  endfacet
  facet normal -7.808688e-001 0.000000e+000 0.000000e+000
    outer loop
      vertex   -1.400000e+002 2.615000e+002 1.200000e+001
      vertex   -1.400000e+002 2.765000e+002 0.000000e+000
      vertex   -1.400000e+002 2.615000e+002 0.000000e+000
    endloop
  endfacet
  facet normal 0.000000e+000 1.000000e+000 0.000000e+000
    outer loop
      vertex   -1.200000e+002 2.765000e+002 1.200000e+001
      vertex   -1.200000e+002 2.765000e+002 0.000000e+000
      vertex   -1.400000e+002 2.765000e+002 1.200000e+001
    endloop
  endfacet
  facet normal 0.000000e+000 8.574929e-001 0.000000e+000
    outer loop
      vertex   -1.400000e+002 2.765000e+002 1.200000e+001
      vertex   -1.200000e+002 2.765000e+002 0.000000e+000
      vertex   -1.400000e+002 2.765000e+002 0.000000e+000
    endloop
  endfacet
  facet normal 1.000000e+000 -0.000000e+000 0.000000e+000
    outer loop
      vertex   -1.200000e+002 2.615000e+002 1.200000e+001
      vertex   -1.200000e+002 2.615000e+002 0.000000e+000
      vertex   -1.200000e+002 2.765000e+002 1.200000e+001
    endloop
  endfacet
  facet normal 7.808688e-001 0.000000e+000 0.000000e+000
    outer loop
      vertex   -1.200000e+002 2.765000e+002 1.200000e+001
      vertex   -1.200000e+002 2.615000e+002 0.000000e+000
      vertex   -1.200000e+002 2.765000e+002 0.000000e+000
    endloop
  endfacet
endsolid
solid ascii
  facet normal 5.076731e-001 -0.000000e+000 6.092077e-001
    outer loop
      vertex   -1.230000e+002 2.645000e+002 1.600000e+001
      vertex   -1.200000e+002 2.615000e+002 1.350000e+001
      vertex   -1.230000e+002 2.735000e+002 1.600000e+001
    endloop
  endfacet
  facet normal 6.034422e-001 -1.387779e-017 7.241306e-001
    outer loop
      vertex   -1.230000e+002 2.735000e+002 1.600000e+001
      vertex   -1.200000e+002 2.615000e+002 1.350000e+001
      vertex   -1.200000e+002 2.765000e+002 1.350000e+001
    endloop
  endfacet
  facet normal 0.000000e+000 -5.076731e-001 6.092077e-001
    outer loop
      vertex   -1.400000e+002 2.615000e+002 1.350000e+001
      vertex   -1.200000e+002 2.615000e+002 1.350000e+001
      vertex   -1.370000e+002 2.645000e+002 1.600000e+001
    endloop
  endfacet
  facet normal 0.000000e+000 -1.433259e-001 1.719911e-001
    outer loop
      vertex   -1.370000e+002 2.645000e+002 1.600000e+001
      vertex   -1.200000e+002 2.615000e+002 1.350000e+001
      vertex   -1.230000e+002 2.645000e+002 1.600000e+001
    endloop
  endfacet
  facet normal -0.000000e+000 5.076731e-001 6.092077e-001
    outer loop
      vertex   -1.370000e+002 2.735000e+002 1.600000e+001
      vertex   -1.230000e+002 2.735000e+002 1.600000e+001
      vertex   -1.400000e+002 2.765000e+002 1.350000e+001
    endloop
  endfacet
  facet normal -0.000000e+000 1.433259e-001 1.719911e-001
    outer loop
      vertex   -1.400000e+002 2.765000e+002 1.350000e+001
      vertex   -1.230000e+002 2.735000e+002 1.600000e+001
      vertex   -1.200000e+002 2.765000e+002 1.350000e+001
    endloop
  endfacet
  facet normal -5.076731e-001 0.000000e+000 6.092077e-001
    outer loop
      vertex   -1.370000e+002 2.645000e+002 1.600000e+001
      vertex   -1.370000e+002 2.735000e+002 1.600000e+001
      vertex   -1.400000e+002 2.615000e+002 1.350000e+001
    endloop
  endfacet
  facet normal -1.981072e-001 0.000000e+000 2.377287e-001
    outer loop
      vertex   -1.400000e+002 2.615000e+002 1.350000e+001
      vertex   -1.370000e+002 2.735000e+002 1.600000e+001
      vertex   -1.400000e+002 2.765000e+002 1.350000e+001
    endloop
  endfacet
  facet normal 0.000000e+000 1.000000e+000 0.000000e+000
    outer loop
      vertex   -1.200000e+002 2.765000e+002 1.350000e+001
      vertex   -1.200000e+002 2.765000e+002 1.100000e+001
      vertex   -1.400000e+002 2.765000e+002 1.350000e+001
    endloop
  endfacet
  facet normal 0.000000e+000 9.922779e-001 0.000000e+000
    outer loop
      vertex   -1.400000e+002 2.765000e+002 1.350000e+001
      vertex   -1.200000e+002 2.765000e+002 1.100000e+001
      vertex   -1.400000e+002 2.765000e+002 1.100000e+001
    endloop
  endfacet
  facet normal 1.000000e+000 -0.000000e+000 0.000000e+000
    outer loop
      vertex   -1.200000e+002 2.615000e+002 1.350000e+001
      vertex   -1.200000e+002 2.615000e+002 1.100000e+001
      vertex   -1.200000e+002 2.765000e+002 1.350000e+001
    endloop
  endfacet
  facet normal 9.863939e-001 0.000000e+000 0.000000e+000
    outer loop
      vertex   -1.200000e+002 2.765000e+002 1.350000e+001
      vertex   -1.200000e+002 2.615000e+002 1.100000e+001
      vertex   -1.200000e+002 2.765000e+002 1.100000e+001
    endloop
  endfacet
  facet normal 0.000000e+000 0.000000e+000 1.000000e+000
    outer loop
      vertex   -1.230000e+002 2.735000e+002 1.600000e+001
      vertex   -1.370000e+002 2.735000e+002 1.600000e+001
      vertex   -1.230000e+002 2.645000e+002 1.600000e+001
    endloop
  endfacet
  facet normal 0.000000e+000 0.000000e+000 5.407576e-001
    outer loop
      vertex   -1.230000e+002 2.645000e+002 1.600000e+001
      vertex   -1.370000e+002 2.735000e+002 1.600000e+001
      vertex   -1.370000e+002 2.645000e+002 1.600000e+001
    endloop
  endfacet
  facet normal 0.000000e+000 0.000000e+000 -1.000000e+000
    outer loop
      vertex   -1.200000e+002 2.615000e+002 1.100000e+001
      vertex   -1.400000e+002 2.615000e+002 1.100000e+001
      vertex   -1.200000e+002 2.765000e+002 1.100000e+001
    endloop
  endfacet
  facet normal -0.000000e+000 0.000000e+000 -6.000000e-001
    outer loop
      vertex   -1.200000e+002 2.765000e+002 1.100000e+001
      vertex   -1.400000e+002 2.615000e+002 1.100000e+001
      vertex   -1.400000e+002 2.765000e+002 1.100000e+001
    endloop
  endfacet
  facet normal 0.000000e+000 -1.000000e+000 0.000000e+000
    outer loop
      vertex   -1.400000e+002 2.615000e+002 1.350000e+001
      vertex   -1.400000e+002 2.615000e+002 1.100000e+001
      vertex   -1.200000e+002 2.615000e+002 1.350000e+001
    endloop
  endfacet
  facet normal 0.000000e+000 -9.922779e-001 -0.000000e+000
    outer loop
      vertex   -1.200000e+002 2.615000e+002 1.350000e+001
      vertex   -1.400000e+002 2.615000e+002 1.100000e+001
      vertex   -1.200000e+002 2.615000e+002 1.100000e+001
    endloop
  endfacet
  facet normal -1.000000e+000 -0.000000e+000 -0.000000e+000
    outer loop
      vertex   -1.400000e+002 2.765000e+002 1.350000e+001
      vertex   -1.400000e+002 2.765000e+002 1.100000e+001
      vertex   -1.400000e+002 2.615000e+002 1.350000e+001
    endloop
  endfacet
  facet normal -9.863939e-001 0.000000e+000 0.000000e+000
    outer loop
      vertex   -1.400000e+002 2.615000e+002 1.350000e+001
      vertex   -1.400000e+002 2.765000e+002 1.100000e+001
      vertex   -1.400000e+002 2.615000e+002 1.100000e+001
    endloop
  endfacet
endsolid
solid ascii
  facet normal 0.000000e+000 0.000000e+000 1.000000e+000
    outer loop
      vertex   -1.340000e+002 2.775000e+002 1.200000e+001
      vertex   -1.360000e+002 2.775000e+002 1.200000e+001
      vertex   -1.340000e+002 2.605000e+002 1.200000e+001
    endloop
  endfacet
  facet normal 0.000000e+000 0.000000e+000 9.931506e-001
    outer loop
      vertex   -1.340000e+002 2.605000e+002 1.200000e+001
      vertex   -1.360000e+002 2.775000e+002 1.200000e+001
      vertex   -1.360000e+002 2.605000e+002 1.200000e+001
    endloop
  endfacet
  facet normal 0.000000e+000 0.000000e+000 -1.000000e+000
    outer loop
      vertex   -1.340000e+002 2.605000e+002 0.000000e+000
      vertex   -1.360000e+002 2.605000e+002 0.000000e+000
      vertex   -1.340000e+002 2.775000e+002 0.000000e+000
    endloop
  endfacet
  facet normal -0.000000e+000 0.000000e+000 -9.931506e-001
    outer loop
      vertex   -1.340000e+002 2.775000e+002 0.000000e+000
      vertex   -1.360000e+002 2.605000e+002 0.000000e+000
      vertex   -1.360000e+002 2.775000e+002 0.000000e+000
    endloop
  endfacet
  facet normal 0.000000e+000 -1.000000e+000 0.000000e+000
    outer loop
      vertex   -1.360000e+002 2.605000e+002 1.200000e+001
      vertex   -1.360000e+002 2.605000e+002 0.000000e+000
      vertex   -1.340000e+002 2.605000e+002 1.200000e+001
    endloop
  endfacet
  facet normal 0.000000e+000 -1.643990e-001 -0.000000e+000
    outer loop
      vertex   -1.340000e+002 2.605000e+002 1.200000e+001
      vertex   -1.360000e+002 2.605000e+002 0.000000e+000
      vertex   -1.340000e+002 2.605000e+002 0.000000e+000
    endloop
  endfacet
  facet normal -1.000000e+000 -0.000000e+000 -0.000000e+000
    outer loop
      vertex   -1.360000e+002 2.775000e+002 1.200000e+001
      vertex   -1.360000e+002 2.775000e+002 0.000000e+000
      vertex   -1.360000e+002 2.605000e+002 1.200000e+001
    endloop
  endfacet
  facet normal -8.169678e-001 0.000000e+000 0.000000e+000
    outer loop
      vertex   -1.360000e+002 2.605000e+002 1.200000e+001
      vertex   -1.360000e+002 2.775000e+002 0.000000e+000
      vertex   -1.360000e+002 2.605000e+002 0.000000e+000
    endloop
  endfacet
  facet normal 0.000000e+000 1.000000e+000 0.000000e+000
    outer loop
      vertex   -1.340000e+002 2.775000e+002 1.200000e+001
      vertex   -1.340000e+002 2.775000e+002 0.000000e+000
      vertex   -1.360000e+002 2.775000e+002 1.200000e+001
    endloop
  endfacet
  facet normal 0.000000e+000 1.643990e-001 0.000000e+000
    outer loop
      vertex   -1.360000e+002 2.775000e+002 1.200000e+001
      vertex   -1.340000e+002 2.775000e+002 0.000000e+000
      vertex   -1.360000e+002 2.775000e+002 0.000000e+000
    endloop
  endfacet
  facet normal 1.000000e+000 -0.000000e+000 0.000000e+000
    outer loop
      vertex   -1.340000e+002 2.605000e+002 1.200000e+001
      vertex   -1.340000e+002 2.605000e+002 0.000000e+000
      vertex   -1.340000e+002 2.775000e+002 1.200000e+001
    endloop
  endfacet
  facet normal 8.169678e-001 0.000000e+000 0.000000e+000
    outer loop
      vertex   -1.340000e+002 2.775000e+002 1.200000e+001
      vertex   -1.340000e+002 2.605000e+002 0.000000e+000
      vertex   -1.340000e+002 2.775000e+002 0.000000e+000
    endloop
  endfacet
endsolid
solid ascii
  facet normal 0.000000e+000 0.000000e+000 1.000000e+000
    outer loop
      vertex   -1.240000e+002 2.775000e+002 1.200000e+001
      vertex   -1.260000e+002 2.775000e+002 1.200000e+001
      vertex   -1.240000e+002 2.605000e+002 1.200000e+001
    endloop
  endfacet
  facet normal 0.000000e+000 0.000000e+000 9.931506e-001
    outer loop
      vertex   -1.240000e+002 2.605000e+002 1.200000e+001
      vertex   -1.260000e+002 2.775000e+002 1.200000e+001
      vertex   -1.260000e+002 2.605000e+002 1.200000e+001
    endloop
  endfacet
  facet normal 0.000000e+000 0.000000e+000 -1.000000e+000
    outer loop
      vertex   -1.240000e+002 2.605000e+002 0.000000e+000
      vertex   -1.260000e+002 2.605000e+002 0.000000e+000
      vertex   -1.240000e+002 2.775000e+002 0.000000e+000
    endloop
  endfacet
  facet normal -0.000000e+000 0.000000e+000 -9.931506e-001
    outer loop
      vertex   -1.240000e+002 2.775000e+002 0.000000e+000
      vertex   -1.260000e+002 2.605000e+002 0.000000e+000
      vertex   -1.260000e+002 2.775000e+002 0.000000e+000
    endloop
  endfacet
  facet normal 0.000000e+000 -1.000000e+000 0.000000e+000
    outer loop
      vertex   -1.260000e+002 2.605000e+002 1.200000e+001
      vertex   -1.260000e+002 2.605000e+002 0.000000e+000
      vertex   -1.240000e+002 2.605000e+002 1.200000e+001
    endloop
  endfacet
  facet normal 0.000000e+000 -1.643990e-001 -0.000000e+000
    outer loop
      vertex   -1.240000e+002 2.605000e+002 1.200000e+001
      vertex   -1.260000e+002 2.605000e+002 0.000000e+000
      vertex   -1.240000e+002 2.605000e+002 0.000000e+000
    endloop
  endfacet
  facet normal -1.000000e+000 -0.000000e+000 -0.000000e+000
    outer loop
      vertex   -1.260000e+002 2.775000e+002 1.200000e+001
      vertex   -1.260000e+002 2.775000e+002 0.000000e+000
      vertex   -1.260000e+002 2.605000e+002 1.200000e+001
    endloop
  endfacet
  facet normal -8.169678e-001 0.000000e+000 0.000000e+000
    outer loop
      vertex   -1.260000e+002 2.605000e+002 1.200000e+001
      vertex   -1.260000e+002 2.775000e+002 0.000000e+000
      vertex   -1.260000e+002 2.605000e+002 0.000000e+000
    endloop
  endfacet
  facet normal 0.000000e+000 1.000000e+000 0.000000e+000
    outer loop
      vertex   -1.240000e+002 2.775000e+002 1.200000e+001
      vertex   -1.240000e+002 2.775000e+002 0.000000e+000
      vertex   -1.260000e+002 2.775000e+002 1.200000e+001
    endloop
  endfacet
  facet normal 0.000000e+000 1.643990e-001 0.000000e+000
    outer loop
      vertex   -1.260000e+002 2.775000e+002 1.200000e+001
      vertex   -1.240000e+002 2.775000e+002 0.000000e+000
      vertex   -1.260000e+002 2.775000e+002 0.000000e+000
    endloop
  endfacet
  facet normal 1.000000e+000 -0.000000e+000 0.000000e+000
    outer loop
      vertex   -1.240000e+002 2.605000e+002 1.200000e+001
      vertex   -1.240000e+002 2.605000e+002 0.000000e+000
      vertex   -1.240000e+002 2.775000e+002 1.200000e+001
    endloop
  endfacet
  facet normal 8.169678e-001 0.000000e+000 0.000000e+000
    outer loop
      vertex   -1.240000e+002 2.775000e+002 1.200000e+001
      vertex   -1.240000e+002 2.605000e+002 0.000000e+000
      vertex   -1.240000e+002 2.775000e+002 0.000000e+000
    endloop
  endfacet
endsolid
