solid ascii
  facet normal -0.000000e+000 0.000000e+000 1.000000e+000
    outer loop
      vertex   -1.860000e+002 2.810000e+002 1.000000e+001
      vertex   -1.860000e+002 2.610000e+002 1.000000e+001
      vertex   -1.460000e+002 2.810000e+002 1.000000e+001
    endloop
  endfacet
  facet normal 0.000000e+000 0.000000e+000 8.944272e-001
    outer loop
      vertex   -1.460000e+002 2.810000e+002 1.000000e+001
      vertex   -1.860000e+002 2.610000e+002 1.000000e+001
      vertex   -1.460000e+002 2.610000e+002 1.000000e+001
    endloop
  endfacet
  facet normal -0.000000e+000 -0.000000e+000 -1.000000e+000
    outer loop
      vertex   -1.460000e+002 2.810000e+002 0.000000e+000
      vertex   -1.460000e+002 2.610000e+002 0.000000e+000
      vertex   -1.860000e+002 2.810000e+002 0.000000e+000
    endloop
  endfacet
  facet normal 0.000000e+000 0.000000e+000 -8.944272e-001
    outer loop
      vertex   -1.860000e+002 2.810000e+002 0.000000e+000
      vertex   -1.460000e+002 2.610000e+002 0.000000e+000
      vertex   -1.860000e+002 2.610000e+002 0.000000e+000
    endloop
  endfacet
  facet normal 1.000000e+000 -0.000000e+000 0.000000e+000
    outer loop
      vertex   -1.460000e+002 2.610000e+002 1.000000e+001
      vertex   -1.460000e+002 2.610000e+002 0.000000e+000
      vertex   -1.460000e+002 2.810000e+002 1.000000e+001
    endloop
  endfacet
  facet normal 8.944272e-001 0.000000e+000 0.000000e+000
    outer loop
      vertex   -1.460000e+002 2.810000e+002 1.000000e+001
      vertex   -1.460000e+002 2.610000e+002 0.000000e+000
      vertex   -1.460000e+002 2.810000e+002 0.000000e+000
    endloop
  endfacet
  facet normal 0.000000e+000 -1.000000e+000 0.000000e+000
    outer loop
      vertex   -1.860000e+002 2.610000e+002 1.000000e+001
      vertex   -1.860000e+002 2.610000e+002 0.000000e+000
      vertex   -1.460000e+002 2.610000e+002 1.000000e+001
    endloop
  endfacet
  facet normal 0.000000e+000 -9.701425e-001 -0.000000e+000
    outer loop
      vertex   -1.460000e+002 2.610000e+002 1.000000e+001
      vertex   -1.860000e+002 2.610000e+002 0.000000e+000
      vertex   -1.460000e+002 2.610000e+002 0.000000e+000
    endloop
  endfacet
  facet normal -1.000000e+000 -0.000000e+000 -0.000000e+000
    outer loop
      vertex   -1.860000e+002 2.810000e+002 1.000000e+001
      vertex   -1.860000e+002 2.810000e+002 0.000000e+000
      vertex   -1.860000e+002 2.610000e+002 1.000000e+001
    endloop
  endfacet
  facet normal -8.944272e-001 0.000000e+000 0.000000e+000
    outer loop
      vertex   -1.860000e+002 2.610000e+002 1.000000e+001
      vertex   -1.860000e+002 2.810000e+002 0.000000e+000
      vertex   -1.860000e+002 2.610000e+002 0.000000e+000
    endloop
  endfacet
  facet normal 0.000000e+000 1.000000e+000 0.000000e+000
    outer loop
      vertex   -1.460000e+002 2.810000e+002 1.000000e+001
      vertex   -1.460000e+002 2.810000e+002 0.000000e+000
      vertex   -1.860000e+002 2.810000e+002 1.000000e+001
    endloop
  endfacet
  facet normal 0.000000e+000 9.701425e-001 0.000000e+000
    outer loop
      vertex   -1.860000e+002 2.810000e+002 1.000000e+001
      vertex   -1.460000e+002 2.810000e+002 0.000000e+000
      vertex   -1.860000e+002 2.810000e+002 0.000000e+000
    endloop
  endfacet
endsolid
solid ascii
  facet normal 0.000000e+000 5.773503e-001 5.773503e-001
    outer loop
      vertex   -1.510000e+002 2.760000e+002 1.500000e+001
      vertex   -1.460000e+002 2.810000e+002 1.000000e+001
      vertex   -1.810000e+002 2.760000e+002 1.500000e+001
    endloop
  endfacet
  facet normal 0.000000e+000 6.467617e-001 6.467617e-001
    outer loop
      vertex   -1.810000e+002 2.760000e+002 1.500000e+001
      vertex   -1.460000e+002 2.810000e+002 1.000000e+001
      vertex   -1.860000e+002 2.810000e+002 1.000000e+001
    endloop
  endfacet
  facet normal -5.773503e-001 0.000000e+000 5.773503e-001
    outer loop
      vertex   -1.860000e+002 2.810000e+002 1.000000e+001
      vertex   -1.860000e+002 2.610000e+002 1.000000e+001
      vertex   -1.810000e+002 2.760000e+002 1.500000e+001
    endloop
  endfacet
  facet normal -3.015113e-001 0.000000e+000 3.015113e-001
    outer loop
      vertex   -1.810000e+002 2.760000e+002 1.500000e+001
      vertex   -1.860000e+002 2.610000e+002 1.000000e+001
      vertex   -1.810000e+002 2.660000e+002 1.500000e+001
    endloop
  endfacet
  facet normal 0.000000e+000 -5.773503e-001 5.773503e-001
    outer loop
      vertex   -1.510000e+002 2.660000e+002 1.500000e+001
      vertex   -1.810000e+002 2.660000e+002 1.500000e+001
      vertex   -1.460000e+002 2.610000e+002 1.000000e+001
    endloop
  endfacet
  facet normal 0.000000e+000 -1.400280e-001 1.400280e-001
    outer loop
      vertex   -1.460000e+002 2.610000e+002 1.000000e+001
      vertex   -1.810000e+002 2.660000e+002 1.500000e+001
      vertex   -1.860000e+002 2.610000e+002 1.000000e+001
    endloop
  endfacet
  facet normal 5.773503e-001 0.000000e+000 5.773503e-001
    outer loop
      vertex   -1.510000e+002 2.760000e+002 1.500000e+001
      vertex   -1.510000e+002 2.660000e+002 1.500000e+001
      vertex   -1.460000e+002 2.810000e+002 1.000000e+001
    endloop
  endfacet
  facet normal 3.015113e-001 0.000000e+000 3.015113e-001
    outer loop
      vertex   -1.460000e+002 2.810000e+002 1.000000e+001
      vertex   -1.510000e+002 2.660000e+002 1.500000e+001
      vertex   -1.460000e+002 2.610000e+002 1.000000e+001
    endloop
  endfacet
  facet normal -0.000000e+000 0.000000e+000 1.000000e+000
    outer loop
      vertex   -1.810000e+002 2.760000e+002 1.500000e+001
      vertex   -1.810000e+002 2.660000e+002 1.500000e+001
      vertex   -1.510000e+002 2.760000e+002 1.500000e+001
    endloop
  endfacet
  facet normal 0.000000e+000 0.000000e+000 9.486833e-001
    outer loop
      vertex   -1.510000e+002 2.760000e+002 1.500000e+001
      vertex   -1.810000e+002 2.660000e+002 1.500000e+001
      vertex   -1.510000e+002 2.660000e+002 1.500000e+001
    endloop
  endfacet
  facet normal -0.000000e+000 -0.000000e+000 -1.000000e+000
    outer loop
      vertex   -1.460000e+002 2.810000e+002 1.000000e+001
      vertex   -1.460000e+002 2.610000e+002 1.000000e+001
      vertex   -1.860000e+002 2.810000e+002 1.000000e+001
    endloop
  endfacet
  facet normal 0.000000e+000 0.000000e+000 -8.944272e-001
    outer loop
      vertex   -1.860000e+002 2.810000e+002 1.000000e+001
      vertex   -1.460000e+002 2.610000e+002 1.000000e+001
      vertex   -1.860000e+002 2.610000e+002 1.000000e+001
    endloop
  endfacet
endsolid
solid ascii
  facet normal 7.071068e-001 0.000000e+000 7.071068e-001
    outer loop
      vertex   -1.460000e+002 2.660000e+002 1.000000e+001
      vertex   -1.460000e+002 2.610000e+002 1.000000e+001
      vertex   -1.440000e+002 2.660000e+002 8.000000e+000
    endloop
  endfacet
  facet normal 3.481553e-001 0.000000e+000 3.481553e-001
    outer loop
      vertex   -1.440000e+002 2.660000e+002 8.000000e+000
      vertex   -1.460000e+002 2.610000e+002 1.000000e+001
      vertex   -1.440000e+002 2.610000e+002 8.000000e+000
    endloop
  endfacet
  facet normal -0.000000e+000 1.000000e+000 0.000000e+000
    outer loop
      vertex   -1.540000e+002 2.660000e+002 1.000000e+001
      vertex   -1.460000e+002 2.660000e+002 1.000000e+001
      vertex   -1.540000e+002 2.660000e+002 0.000000e+000
    endloop
  endfacet
  facet normal 0.000000e+000 2.195122e-001 0.000000e+000
    outer loop
      vertex   -1.540000e+002 2.660000e+002 0.000000e+000
      vertex   -1.460000e+002 2.660000e+002 1.000000e+001
      vertex   -1.440000e+002 2.660000e+002 8.000000e+000
    endloop
  endfacet
  facet normal 0.000000e+000 6.246951e-001 0.000000e+000
    outer loop
      vertex   -1.540000e+002 2.660000e+002 0.000000e+000
      vertex   -1.440000e+002 2.660000e+002 8.000000e+000
      vertex   -1.440000e+002 2.660000e+002 0.000000e+000
    endloop
  endfacet
  facet normal 1.000000e+000 -0.000000e+000 0.000000e+000
    outer loop
      vertex   -1.440000e+002 2.610000e+002 8.000000e+000
      vertex   -1.440000e+002 2.610000e+002 0.000000e+000
      vertex   -1.440000e+002 2.660000e+002 8.000000e+000
    endloop
  endfacet
  facet normal 5.299990e-001 0.000000e+000 0.000000e+000
    outer loop
      vertex   -1.440000e+002 2.660000e+002 8.000000e+000
      vertex   -1.440000e+002 2.610000e+002 0.000000e+000
      vertex   -1.440000e+002 2.660000e+002 0.000000e+000
    endloop
  endfacet
  facet normal 0.000000e+000 -0.000000e+000 1.000000e+000
    outer loop
      vertex   -1.460000e+002 2.610000e+002 1.000000e+001
      vertex   -1.460000e+002 2.660000e+002 1.000000e+001
      vertex   -1.540000e+002 2.610000e+002 1.000000e+001
    endloop
  endfacet
  facet normal 0.000000e+000 0.000000e+000 8.479983e-001
    outer loop
      vertex   -1.540000e+002 2.610000e+002 1.000000e+001
      vertex   -1.460000e+002 2.660000e+002 1.000000e+001
      vertex   -1.540000e+002 2.660000e+002 1.000000e+001
    endloop
  endfacet
  facet normal -0.000000e+000 -0.000000e+000 -1.000000e+000
    outer loop
      vertex   -1.440000e+002 2.660000e+002 0.000000e+000
      vertex   -1.440000e+002 2.610000e+002 0.000000e+000
      vertex   -1.540000e+002 2.660000e+002 0.000000e+000
    endloop
  endfacet
  facet normal 0.000000e+000 0.000000e+000 -8.944272e-001
    outer loop
      vertex   -1.540000e+002 2.660000e+002 0.000000e+000
      vertex   -1.440000e+002 2.610000e+002 0.000000e+000
      vertex   -1.540000e+002 2.610000e+002 0.000000e+000
    endloop
  endfacet
  facet normal 0.000000e+000 -1.000000e+000 0.000000e+000
    outer loop
      vertex   -1.440000e+002 2.610000e+002 0.000000e+000
      vertex   -1.440000e+002 2.610000e+002 8.000000e+000
      vertex   -1.540000e+002 2.610000e+002 0.000000e+000
    endloop
  endfacet
  facet normal 0.000000e+000 -2.195122e-001 0.000000e+000
    outer loop
      vertex   -1.540000e+002 2.610000e+002 0.000000e+000
      vertex   -1.440000e+002 2.610000e+002 8.000000e+000
      vertex   -1.460000e+002 2.610000e+002 1.000000e+001
    endloop
  endfacet
  facet normal 0.000000e+000 -6.246951e-001 0.000000e+000
    outer loop
      vertex   -1.540000e+002 2.610000e+002 0.000000e+000
      vertex   -1.460000e+002 2.610000e+002 1.000000e+001
      vertex   -1.540000e+002 2.610000e+002 1.000000e+001
    endloop
  endfacet
  facet normal -1.000000e+000 -0.000000e+000 -0.000000e+000
    outer loop
      vertex   -1.540000e+002 2.660000e+002 1.000000e+001
      vertex   -1.540000e+002 2.660000e+002 0.000000e+000
      vertex   -1.540000e+002 2.610000e+002 1.000000e+001
    endloop
  endfacet
  facet normal -4.472136e-001 0.000000e+000 0.000000e+000
    outer loop
      vertex   -1.540000e+002 2.610000e+002 1.000000e+001
      vertex   -1.540000e+002 2.660000e+002 0.000000e+000
      vertex   -1.540000e+002 2.610000e+002 0.000000e+000
    endloop
  endfacet
endsolid
solid ascii
  facet normal 7.071068e-001 0.000000e+000 7.071068e-001
    outer loop
      vertex   -1.460000e+002 2.810000e+002 1.000000e+001
      vertex   -1.460000e+002 2.760000e+002 1.000000e+001
      vertex   -1.440000e+002 2.810000e+002 8.000000e+000
    endloop
  endfacet
  facet normal 3.481553e-001 0.000000e+000 3.481553e-001
    outer loop
      vertex   -1.440000e+002 2.810000e+002 8.000000e+000
      vertex   -1.460000e+002 2.760000e+002 1.000000e+001
      vertex   -1.440000e+002 2.760000e+002 8.000000e+000
    endloop
  endfacet
  facet normal -0.000000e+000 1.000000e+000 0.000000e+000
    outer loop
      vertex   -1.540000e+002 2.810000e+002 1.000000e+001
      vertex   -1.460000e+002 2.810000e+002 1.000000e+001
      vertex   -1.540000e+002 2.810000e+002 0.000000e+000
    endloop
  endfacet
  facet normal 0.000000e+000 2.195122e-001 0.000000e+000
    outer loop
      vertex   -1.540000e+002 2.810000e+002 0.000000e+000
      vertex   -1.460000e+002 2.810000e+002 1.000000e+001
      vertex   -1.440000e+002 2.810000e+002 8.000000e+000
    endloop
  endfacet
  facet normal 0.000000e+000 6.246951e-001 0.000000e+000
    outer loop
      vertex   -1.540000e+002 2.810000e+002 0.000000e+000
      vertex   -1.440000e+002 2.810000e+002 8.000000e+000
      vertex   -1.440000e+002 2.810000e+002 0.000000e+000
    endloop
  endfacet
  facet normal 1.000000e+000 -0.000000e+000 0.000000e+000
    outer loop
      vertex   -1.440000e+002 2.760000e+002 8.000000e+000
      vertex   -1.440000e+002 2.760000e+002 0.000000e+000
      vertex   -1.440000e+002 2.810000e+002 8.000000e+000
    endloop
  endfacet
  facet normal 5.299990e-001 0.000000e+000 0.000000e+000
    outer loop
      vertex   -1.440000e+002 2.810000e+002 8.000000e+000
      vertex   -1.440000e+002 2.760000e+002 0.000000e+000
      vertex   -1.440000e+002 2.810000e+002 0.000000e+000
    endloop
  endfacet
  facet normal 0.000000e+000 -0.000000e+000 1.000000e+000
    outer loop
      vertex   -1.460000e+002 2.760000e+002 1.000000e+001
      vertex   -1.460000e+002 2.810000e+002 1.000000e+001
      vertex   -1.540000e+002 2.760000e+002 1.000000e+001
    endloop
  endfacet
  facet normal 0.000000e+000 0.000000e+000 8.479983e-001
    outer loop
      vertex   -1.540000e+002 2.760000e+002 1.000000e+001
      vertex   -1.460000e+002 2.810000e+002 1.000000e+001
      vertex   -1.540000e+002 2.810000e+002 1.000000e+001
    endloop
  endfacet
  facet normal -0.000000e+000 -0.000000e+000 -1.000000e+000
    outer loop
      vertex   -1.440000e+002 2.810000e+002 0.000000e+000
      vertex   -1.440000e+002 2.760000e+002 0.000000e+000
      vertex   -1.540000e+002 2.810000e+002 0.000000e+000
    endloop
  endfacet
  facet normal 0.000000e+000 0.000000e+000 -8.944272e-001
    outer loop
      vertex   -1.540000e+002 2.810000e+002 0.000000e+000
      vertex   -1.440000e+002 2.760000e+002 0.000000e+000
      vertex   -1.540000e+002 2.760000e+002 0.000000e+000
    endloop
  endfacet
  facet normal 0.000000e+000 -1.000000e+000 0.000000e+000
    outer loop
      vertex   -1.440000e+002 2.760000e+002 0.000000e+000
      vertex   -1.440000e+002 2.760000e+002 8.000000e+000
      vertex   -1.540000e+002 2.760000e+002 0.000000e+000
    endloop
  endfacet
  facet normal 0.000000e+000 -2.195122e-001 0.000000e+000
    outer loop
      vertex   -1.540000e+002 2.760000e+002 0.000000e+000
      vertex   -1.440000e+002 2.760000e+002 8.000000e+000
      vertex   -1.460000e+002 2.760000e+002 1.000000e+001
    endloop
  endfacet
  facet normal 0.000000e+000 -6.246951e-001 0.000000e+000
    outer loop
      vertex   -1.540000e+002 2.760000e+002 0.000000e+000
      vertex   -1.460000e+002 2.760000e+002 1.000000e+001
      vertex   -1.540000e+002 2.760000e+002 1.000000e+001
    endloop
  endfacet
  facet normal -1.000000e+000 -0.000000e+000 -0.000000e+000
    outer loop
      vertex   -1.540000e+002 2.810000e+002 1.000000e+001
      vertex   -1.540000e+002 2.810000e+002 0.000000e+000
      vertex   -1.540000e+002 2.760000e+002 1.000000e+001
    endloop
  endfacet
  facet normal -4.472136e-001 0.000000e+000 0.000000e+000
    outer loop
      vertex   -1.540000e+002 2.760000e+002 1.000000e+001
      vertex   -1.540000e+002 2.810000e+002 0.000000e+000
      vertex   -1.540000e+002 2.760000e+002 0.000000e+000
    endloop
  endfacet
endsolid
solid ascii
  facet normal -7.071068e-001 0.000000e+000 7.071068e-001
    outer loop
      vertex   -1.860000e+002 2.760000e+002 1.000000e+001
      vertex   -1.860000e+002 2.810000e+002 1.000000e+001
      vertex   -1.880000e+002 2.760000e+002 8.000000e+000
    endloop
  endfacet
  facet normal -3.481553e-001 0.000000e+000 3.481553e-001
    outer loop
      vertex   -1.880000e+002 2.760000e+002 8.000000e+000
      vertex   -1.860000e+002 2.810000e+002 1.000000e+001
      vertex   -1.880000e+002 2.810000e+002 8.000000e+000
    endloop
  endfacet
  facet normal -0.000000e+000 -1.000000e+000 -0.000000e+000
    outer loop
      vertex   -1.780000e+002 2.760000e+002 1.000000e+001
      vertex   -1.860000e+002 2.760000e+002 1.000000e+001
      vertex   -1.780000e+002 2.760000e+002 0.000000e+000
    endloop
  endfacet
  facet normal 0.000000e+000 -2.195122e-001 0.000000e+000
    outer loop
      vertex   -1.780000e+002 2.760000e+002 0.000000e+000
      vertex   -1.860000e+002 2.760000e+002 1.000000e+001
      vertex   -1.880000e+002 2.760000e+002 8.000000e+000
    endloop
  endfacet
  facet normal 0.000000e+000 -6.246951e-001 0.000000e+000
    outer loop
      vertex   -1.780000e+002 2.760000e+002 0.000000e+000
      vertex   -1.880000e+002 2.760000e+002 8.000000e+000
      vertex   -1.880000e+002 2.760000e+002 0.000000e+000
    endloop
  endfacet
  facet normal -1.000000e+000 -0.000000e+000 -0.000000e+000
    outer loop
      vertex   -1.880000e+002 2.810000e+002 8.000000e+000
      vertex   -1.880000e+002 2.810000e+002 0.000000e+000
      vertex   -1.880000e+002 2.760000e+002 8.000000e+000
    endloop
  endfacet
  facet normal -5.299990e-001 0.000000e+000 0.000000e+000
    outer loop
      vertex   -1.880000e+002 2.760000e+002 8.000000e+000
      vertex   -1.880000e+002 2.810000e+002 0.000000e+000
      vertex   -1.880000e+002 2.760000e+002 0.000000e+000
    endloop
  endfacet
  facet normal -0.000000e+000 0.000000e+000 1.000000e+000
    outer loop
      vertex   -1.860000e+002 2.810000e+002 1.000000e+001
      vertex   -1.860000e+002 2.760000e+002 1.000000e+001
      vertex   -1.780000e+002 2.810000e+002 1.000000e+001
    endloop
  endfacet
  facet normal 0.000000e+000 0.000000e+000 8.479983e-001
    outer loop
      vertex   -1.780000e+002 2.810000e+002 1.000000e+001
      vertex   -1.860000e+002 2.760000e+002 1.000000e+001
      vertex   -1.780000e+002 2.760000e+002 1.000000e+001
    endloop
  endfacet
  facet normal 0.000000e+000 0.000000e+000 -1.000000e+000
    outer loop
      vertex   -1.880000e+002 2.760000e+002 0.000000e+000
      vertex   -1.880000e+002 2.810000e+002 0.000000e+000
      vertex   -1.780000e+002 2.760000e+002 0.000000e+000
    endloop
  endfacet
  facet normal 0.000000e+000 0.000000e+000 -8.944272e-001
    outer loop
      vertex   -1.780000e+002 2.760000e+002 0.000000e+000
      vertex   -1.880000e+002 2.810000e+002 0.000000e+000
      vertex   -1.780000e+002 2.810000e+002 0.000000e+000
    endloop
  endfacet
  facet normal 0.000000e+000 1.000000e+000 0.000000e+000
    outer loop
      vertex   -1.880000e+002 2.810000e+002 0.000000e+000
      vertex   -1.880000e+002 2.810000e+002 8.000000e+000
      vertex   -1.780000e+002 2.810000e+002 0.000000e+000
    endloop
  endfacet
  facet normal 0.000000e+000 2.195122e-001 0.000000e+000
    outer loop
      vertex   -1.780000e+002 2.810000e+002 0.000000e+000
      vertex   -1.880000e+002 2.810000e+002 8.000000e+000
      vertex   -1.860000e+002 2.810000e+002 1.000000e+001
    endloop
  endfacet
  facet normal 0.000000e+000 6.246951e-001 -0.000000e+000
    outer loop
      vertex   -1.780000e+002 2.810000e+002 0.000000e+000
      vertex   -1.860000e+002 2.810000e+002 1.000000e+001
      vertex   -1.780000e+002 2.810000e+002 1.000000e+001
    endloop
  endfacet
  facet normal 1.000000e+000 -0.000000e+000 0.000000e+000
    outer loop
      vertex   -1.780000e+002 2.760000e+002 1.000000e+001
      vertex   -1.780000e+002 2.760000e+002 0.000000e+000
      vertex   -1.780000e+002 2.810000e+002 1.000000e+001
    endloop
  endfacet
  facet normal 4.472136e-001 0.000000e+000 0.000000e+000
    outer loop
      vertex   -1.780000e+002 2.810000e+002 1.000000e+001
      vertex   -1.780000e+002 2.760000e+002 0.000000e+000
      vertex   -1.780000e+002 2.810000e+002 0.000000e+000
    endloop
  endfacet
endsolid
solid ascii
  facet normal -7.071068e-001 0.000000e+000 7.071068e-001
    outer loop
      vertex   -1.860000e+002 2.610000e+002 1.000000e+001
      vertex   -1.860000e+002 2.660000e+002 1.000000e+001
      vertex   -1.880000e+002 2.610000e+002 8.000000e+000
    endloop
  endfacet
  facet normal -3.481553e-001 0.000000e+000 3.481553e-001
    outer loop
      vertex   -1.880000e+002 2.610000e+002 8.000000e+000
      vertex   -1.860000e+002 2.660000e+002 1.000000e+001
      vertex   -1.880000e+002 2.660000e+002 8.000000e+000
    endloop
  endfacet
  facet normal -0.000000e+000 -1.000000e+000 -0.000000e+000
    outer loop
      vertex   -1.780000e+002 2.610000e+002 1.000000e+001
      vertex   -1.860000e+002 2.610000e+002 1.000000e+001
      vertex   -1.780000e+002 2.610000e+002 0.000000e+000
    endloop
  endfacet
  facet normal 0.000000e+000 -2.195122e-001 0.000000e+000
    outer loop
      vertex   -1.780000e+002 2.610000e+002 0.000000e+000
      vertex   -1.860000e+002 2.610000e+002 1.000000e+001
      vertex   -1.880000e+002 2.610000e+002 8.000000e+000
    endloop
  endfacet
  facet normal 0.000000e+000 -6.246951e-001 0.000000e+000
    outer loop
      vertex   -1.780000e+002 2.610000e+002 0.000000e+000
      vertex   -1.880000e+002 2.610000e+002 8.000000e+000
      vertex   -1.880000e+002 2.610000e+002 0.000000e+000
    endloop
  endfacet
  facet normal -1.000000e+000 -0.000000e+000 -0.000000e+000
    outer loop
      vertex   -1.880000e+002 2.660000e+002 8.000000e+000
      vertex   -1.880000e+002 2.660000e+002 0.000000e+000
      vertex   -1.880000e+002 2.610000e+002 8.000000e+000
    endloop
  endfacet
  facet normal -5.299990e-001 0.000000e+000 0.000000e+000
    outer loop
      vertex   -1.880000e+002 2.610000e+002 8.000000e+000
      vertex   -1.880000e+002 2.660000e+002 0.000000e+000
      vertex   -1.880000e+002 2.610000e+002 0.000000e+000
    endloop
  endfacet
  facet normal -0.000000e+000 0.000000e+000 1.000000e+000
    outer loop
      vertex   -1.860000e+002 2.660000e+002 1.000000e+001
      vertex   -1.860000e+002 2.610000e+002 1.000000e+001
      vertex   -1.780000e+002 2.660000e+002 1.000000e+001
    endloop
  endfacet
  facet normal 0.000000e+000 0.000000e+000 8.479983e-001
    outer loop
      vertex   -1.780000e+002 2.660000e+002 1.000000e+001
      vertex   -1.860000e+002 2.610000e+002 1.000000e+001
      vertex   -1.780000e+002 2.610000e+002 1.000000e+001
    endloop
  endfacet
  facet normal 0.000000e+000 0.000000e+000 -1.000000e+000
    outer loop
      vertex   -1.880000e+002 2.610000e+002 0.000000e+000
      vertex   -1.880000e+002 2.660000e+002 0.000000e+000
      vertex   -1.780000e+002 2.610000e+002 0.000000e+000
    endloop
  endfacet
  facet normal 0.000000e+000 0.000000e+000 -8.944272e-001
    outer loop
      vertex   -1.780000e+002 2.610000e+002 0.000000e+000
      vertex   -1.880000e+002 2.660000e+002 0.000000e+000
      vertex   -1.780000e+002 2.660000e+002 0.000000e+000
    endloop
  endfacet
  facet normal 0.000000e+000 1.000000e+000 0.000000e+000
    outer loop
      vertex   -1.880000e+002 2.660000e+002 0.000000e+000
      vertex   -1.880000e+002 2.660000e+002 8.000000e+000
      vertex   -1.780000e+002 2.660000e+002 0.000000e+000
    endloop
  endfacet
  facet normal 0.000000e+000 2.195122e-001 0.000000e+000
    outer loop
      vertex   -1.780000e+002 2.660000e+002 0.000000e+000
      vertex   -1.880000e+002 2.660000e+002 8.000000e+000
      vertex   -1.860000e+002 2.660000e+002 1.000000e+001
    endloop
  endfacet
  facet normal 0.000000e+000 6.246951e-001 -0.000000e+000
    outer loop
      vertex   -1.780000e+002 2.660000e+002 0.000000e+000
      vertex   -1.860000e+002 2.660000e+002 1.000000e+001
      vertex   -1.780000e+002 2.660000e+002 1.000000e+001
    endloop
  endfacet
  facet normal 1.000000e+000 -0.000000e+000 0.000000e+000
    outer loop
      vertex   -1.780000e+002 2.610000e+002 1.000000e+001
      vertex   -1.780000e+002 2.610000e+002 0.000000e+000
      vertex   -1.780000e+002 2.660000e+002 1.000000e+001
    endloop
  endfacet
  facet normal 4.472136e-001 0.000000e+000 0.000000e+000
    outer loop
      vertex   -1.780000e+002 2.660000e+002 1.000000e+001
      vertex   -1.780000e+002 2.610000e+002 0.000000e+000
      vertex   -1.780000e+002 2.660000e+002 0.000000e+000
    endloop
  endfacet
endsolid
solid ascii
  facet normal 0.000000e+000 -7.071068e-001 7.071068e-001
    outer loop
      vertex   -1.460000e+002 2.610000e+002 1.000000e+001
      vertex   -1.510000e+002 2.610000e+002 1.000000e+001
      vertex   -1.460000e+002 2.590000e+002 8.000000e+000
    endloop
  endfacet
  facet normal 0.000000e+000 -3.481553e-001 3.481553e-001
    outer loop
      vertex   -1.460000e+002 2.590000e+002 8.000000e+000
      vertex   -1.510000e+002 2.610000e+002 1.000000e+001
      vertex   -1.510000e+002 2.590000e+002 8.000000e+000
    endloop
  endfacet
  facet normal 1.000000e+000 0.000000e+000 0.000000e+000
    outer loop
      vertex   -1.460000e+002 2.690000e+002 1.000000e+001
      vertex   -1.460000e+002 2.610000e+002 1.000000e+001
      vertex   -1.460000e+002 2.690000e+002 0.000000e+000
    endloop
  endfacet
  facet normal 2.195122e-001 0.000000e+000 0.000000e+000
    outer loop
      vertex   -1.460000e+002 2.690000e+002 0.000000e+000
      vertex   -1.460000e+002 2.610000e+002 1.000000e+001
      vertex   -1.460000e+002 2.590000e+002 8.000000e+000
    endloop
  endfacet
  facet normal 6.246951e-001 0.000000e+000 0.000000e+000
    outer loop
      vertex   -1.460000e+002 2.690000e+002 0.000000e+000
      vertex   -1.460000e+002 2.590000e+002 8.000000e+000
      vertex   -1.460000e+002 2.590000e+002 0.000000e+000
    endloop
  endfacet
  facet normal 0.000000e+000 -1.000000e+000 0.000000e+000
    outer loop
      vertex   -1.510000e+002 2.590000e+002 8.000000e+000
      vertex   -1.510000e+002 2.590000e+002 0.000000e+000
      vertex   -1.460000e+002 2.590000e+002 8.000000e+000
    endloop
  endfacet
  facet normal 0.000000e+000 -5.299990e-001 -0.000000e+000
    outer loop
      vertex   -1.460000e+002 2.590000e+002 8.000000e+000
      vertex   -1.510000e+002 2.590000e+002 0.000000e+000
      vertex   -1.460000e+002 2.590000e+002 0.000000e+000
    endloop
  endfacet
  facet normal 0.000000e+000 0.000000e+000 1.000000e+000
    outer loop
      vertex   -1.510000e+002 2.610000e+002 1.000000e+001
      vertex   -1.460000e+002 2.610000e+002 1.000000e+001
      vertex   -1.510000e+002 2.690000e+002 1.000000e+001
    endloop
  endfacet
  facet normal -0.000000e+000 0.000000e+000 8.479983e-001
    outer loop
      vertex   -1.510000e+002 2.690000e+002 1.000000e+001
      vertex   -1.460000e+002 2.610000e+002 1.000000e+001
      vertex   -1.460000e+002 2.690000e+002 1.000000e+001
    endloop
  endfacet
  facet normal 0.000000e+000 0.000000e+000 -1.000000e+000
    outer loop
      vertex   -1.460000e+002 2.590000e+002 0.000000e+000
      vertex   -1.510000e+002 2.590000e+002 0.000000e+000
      vertex   -1.460000e+002 2.690000e+002 0.000000e+000
    endloop
  endfacet
  facet normal -0.000000e+000 0.000000e+000 -8.944272e-001
    outer loop
      vertex   -1.460000e+002 2.690000e+002 0.000000e+000
      vertex   -1.510000e+002 2.590000e+002 0.000000e+000
      vertex   -1.510000e+002 2.690000e+002 0.000000e+000
    endloop
  endfacet
  facet normal -1.000000e+000 0.000000e+000 0.000000e+000
    outer loop
      vertex   -1.510000e+002 2.590000e+002 0.000000e+000
      vertex   -1.510000e+002 2.590000e+002 8.000000e+000
      vertex   -1.510000e+002 2.690000e+002 0.000000e+000
    endloop
  endfacet
  facet normal -2.195122e-001 0.000000e+000 0.000000e+000
    outer loop
      vertex   -1.510000e+002 2.690000e+002 0.000000e+000
      vertex   -1.510000e+002 2.590000e+002 8.000000e+000
      vertex   -1.510000e+002 2.610000e+002 1.000000e+001
    endloop
  endfacet
  facet normal -6.246951e-001 0.000000e+000 0.000000e+000
    outer loop
      vertex   -1.510000e+002 2.690000e+002 0.000000e+000
      vertex   -1.510000e+002 2.610000e+002 1.000000e+001
      vertex   -1.510000e+002 2.690000e+002 1.000000e+001
    endloop
  endfacet
  facet normal 0.000000e+000 1.000000e+000 0.000000e+000
    outer loop
      vertex   -1.460000e+002 2.690000e+002 1.000000e+001
      vertex   -1.460000e+002 2.690000e+002 0.000000e+000
      vertex   -1.510000e+002 2.690000e+002 1.000000e+001
    endloop
  endfacet
  facet normal 0.000000e+000 4.472136e-001 0.000000e+000
    outer loop
      vertex   -1.510000e+002 2.690000e+002 1.000000e+001
      vertex   -1.460000e+002 2.690000e+002 0.000000e+000
      vertex   -1.510000e+002 2.690000e+002 0.000000e+000
    endloop
  endfacet
endsolid
solid ascii
  facet normal 0.000000e+000 -7.071068e-001 7.071068e-001
    outer loop
      vertex   -1.810000e+002 2.610000e+002 1.000000e+001
      vertex   -1.860000e+002 2.610000e+002 1.000000e+001
      vertex   -1.810000e+002 2.590000e+002 8.000000e+000
    endloop
  endfacet
  facet normal 0.000000e+000 -3.481553e-001 3.481553e-001
    outer loop
      vertex   -1.810000e+002 2.590000e+002 8.000000e+000
      vertex   -1.860000e+002 2.610000e+002 1.000000e+001
      vertex   -1.860000e+002 2.590000e+002 8.000000e+000
    endloop
  endfacet
  facet normal 1.000000e+000 0.000000e+000 0.000000e+000
    outer loop
      vertex   -1.810000e+002 2.690000e+002 1.000000e+001
      vertex   -1.810000e+002 2.610000e+002 1.000000e+001
      vertex   -1.810000e+002 2.690000e+002 0.000000e+000
    endloop
  endfacet
  facet normal 2.195122e-001 0.000000e+000 0.000000e+000
    outer loop
      vertex   -1.810000e+002 2.690000e+002 0.000000e+000
      vertex   -1.810000e+002 2.610000e+002 1.000000e+001
      vertex   -1.810000e+002 2.590000e+002 8.000000e+000
    endloop
  endfacet
  facet normal 6.246951e-001 0.000000e+000 0.000000e+000
    outer loop
      vertex   -1.810000e+002 2.690000e+002 0.000000e+000
      vertex   -1.810000e+002 2.590000e+002 8.000000e+000
      vertex   -1.810000e+002 2.590000e+002 0.000000e+000
    endloop
  endfacet
  facet normal 0.000000e+000 -1.000000e+000 0.000000e+000
    outer loop
      vertex   -1.860000e+002 2.590000e+002 8.000000e+000
      vertex   -1.860000e+002 2.590000e+002 0.000000e+000
      vertex   -1.810000e+002 2.590000e+002 8.000000e+000
    endloop
  endfacet
  facet normal 0.000000e+000 -5.299990e-001 -0.000000e+000
    outer loop
      vertex   -1.810000e+002 2.590000e+002 8.000000e+000
      vertex   -1.860000e+002 2.590000e+002 0.000000e+000
      vertex   -1.810000e+002 2.590000e+002 0.000000e+000
    endloop
  endfacet
  facet normal 0.000000e+000 0.000000e+000 1.000000e+000
    outer loop
      vertex   -1.860000e+002 2.610000e+002 1.000000e+001
      vertex   -1.810000e+002 2.610000e+002 1.000000e+001
      vertex   -1.860000e+002 2.690000e+002 1.000000e+001
    endloop
  endfacet
  facet normal -0.000000e+000 0.000000e+000 8.479983e-001
    outer loop
      vertex   -1.860000e+002 2.690000e+002 1.000000e+001
      vertex   -1.810000e+002 2.610000e+002 1.000000e+001
      vertex   -1.810000e+002 2.690000e+002 1.000000e+001
    endloop
  endfacet
  facet normal 0.000000e+000 0.000000e+000 -1.000000e+000
    outer loop
      vertex   -1.810000e+002 2.590000e+002 0.000000e+000
      vertex   -1.860000e+002 2.590000e+002 0.000000e+000
      vertex   -1.810000e+002 2.690000e+002 0.000000e+000
    endloop
  endfacet
  facet normal -0.000000e+000 0.000000e+000 -8.944272e-001
    outer loop
      vertex   -1.810000e+002 2.690000e+002 0.000000e+000
      vertex   -1.860000e+002 2.590000e+002 0.000000e+000
      vertex   -1.860000e+002 2.690000e+002 0.000000e+000
    endloop
  endfacet
  facet normal -1.000000e+000 0.000000e+000 0.000000e+000
    outer loop
      vertex   -1.860000e+002 2.590000e+002 0.000000e+000
      vertex   -1.860000e+002 2.590000e+002 8.000000e+000
      vertex   -1.860000e+002 2.690000e+002 0.000000e+000
    endloop
  endfacet
  facet normal -2.195122e-001 0.000000e+000 0.000000e+000
    outer loop
      vertex   -1.860000e+002 2.690000e+002 0.000000e+000
      vertex   -1.860000e+002 2.590000e+002 8.000000e+000
      vertex   -1.860000e+002 2.610000e+002 1.000000e+001
    endloop
  endfacet
  facet normal -6.246951e-001 0.000000e+000 0.000000e+000
    outer loop
      vertex   -1.860000e+002 2.690000e+002 0.000000e+000
      vertex   -1.860000e+002 2.610000e+002 1.000000e+001
      vertex   -1.860000e+002 2.690000e+002 1.000000e+001
    endloop
  endfacet
  facet normal 0.000000e+000 1.000000e+000 0.000000e+000
    outer loop
      vertex   -1.810000e+002 2.690000e+002 1.000000e+001
      vertex   -1.810000e+002 2.690000e+002 0.000000e+000
      vertex   -1.860000e+002 2.690000e+002 1.000000e+001
    endloop
  endfacet
  facet normal 0.000000e+000 4.472136e-001 0.000000e+000
    outer loop
      vertex   -1.860000e+002 2.690000e+002 1.000000e+001
      vertex   -1.810000e+002 2.690000e+002 0.000000e+000
      vertex   -1.860000e+002 2.690000e+002 0.000000e+000
    endloop
  endfacet
endsolid
solid ascii
  facet normal -0.000000e+000 7.071068e-001 7.071068e-001
    outer loop
      vertex   -1.860000e+002 2.810000e+002 1.000000e+001
      vertex   -1.810000e+002 2.810000e+002 1.000000e+001
      vertex   -1.860000e+002 2.830000e+002 8.000000e+000
    endloop
  endfacet
  facet normal -0.000000e+000 3.481553e-001 3.481553e-001
    outer loop
      vertex   -1.860000e+002 2.830000e+002 8.000000e+000
      vertex   -1.810000e+002 2.810000e+002 1.000000e+001
      vertex   -1.810000e+002 2.830000e+002 8.000000e+000
    endloop
  endfacet
  facet normal -1.000000e+000 0.000000e+000 0.000000e+000
    outer loop
      vertex   -1.860000e+002 2.730000e+002 1.000000e+001
      vertex   -1.860000e+002 2.810000e+002 1.000000e+001
      vertex   -1.860000e+002 2.730000e+002 0.000000e+000
    endloop
  endfacet
  facet normal -2.195122e-001 0.000000e+000 0.000000e+000
    outer loop
      vertex   -1.860000e+002 2.730000e+002 0.000000e+000
      vertex   -1.860000e+002 2.810000e+002 1.000000e+001
      vertex   -1.860000e+002 2.830000e+002 8.000000e+000
    endloop
  endfacet
  facet normal -6.246951e-001 0.000000e+000 0.000000e+000
    outer loop
      vertex   -1.860000e+002 2.730000e+002 0.000000e+000
      vertex   -1.860000e+002 2.830000e+002 8.000000e+000
      vertex   -1.860000e+002 2.830000e+002 0.000000e+000
    endloop
  endfacet
  facet normal 0.000000e+000 1.000000e+000 0.000000e+000
    outer loop
      vertex   -1.810000e+002 2.830000e+002 8.000000e+000
      vertex   -1.810000e+002 2.830000e+002 0.000000e+000
      vertex   -1.860000e+002 2.830000e+002 8.000000e+000
    endloop
  endfacet
  facet normal 0.000000e+000 5.299990e-001 0.000000e+000
    outer loop
      vertex   -1.860000e+002 2.830000e+002 8.000000e+000
      vertex   -1.810000e+002 2.830000e+002 0.000000e+000
      vertex   -1.860000e+002 2.830000e+002 0.000000e+000
    endloop
  endfacet
  facet normal 0.000000e+000 0.000000e+000 1.000000e+000
    outer loop
      vertex   -1.810000e+002 2.810000e+002 1.000000e+001
      vertex   -1.860000e+002 2.810000e+002 1.000000e+001
      vertex   -1.810000e+002 2.730000e+002 1.000000e+001
    endloop
  endfacet
  facet normal 0.000000e+000 0.000000e+000 8.479983e-001
    outer loop
      vertex   -1.810000e+002 2.730000e+002 1.000000e+001
      vertex   -1.860000e+002 2.810000e+002 1.000000e+001
      vertex   -1.860000e+002 2.730000e+002 1.000000e+001
    endloop
  endfacet
  facet normal 0.000000e+000 0.000000e+000 -1.000000e+000
    outer loop
      vertex   -1.860000e+002 2.830000e+002 0.000000e+000
      vertex   -1.810000e+002 2.830000e+002 0.000000e+000
      vertex   -1.860000e+002 2.730000e+002 0.000000e+000
    endloop
  endfacet
  facet normal 0.000000e+000 0.000000e+000 -8.944272e-001
    outer loop
      vertex   -1.860000e+002 2.730000e+002 0.000000e+000
      vertex   -1.810000e+002 2.830000e+002 0.000000e+000
      vertex   -1.810000e+002 2.730000e+002 0.000000e+000
    endloop
  endfacet
  facet normal 1.000000e+000 0.000000e+000 -0.000000e+000
    outer loop
      vertex   -1.810000e+002 2.830000e+002 0.000000e+000
      vertex   -1.810000e+002 2.830000e+002 8.000000e+000
      vertex   -1.810000e+002 2.730000e+002 0.000000e+000
    endloop
  endfacet
  facet normal 2.195122e-001 0.000000e+000 0.000000e+000
    outer loop
      vertex   -1.810000e+002 2.730000e+002 0.000000e+000
      vertex   -1.810000e+002 2.830000e+002 8.000000e+000
      vertex   -1.810000e+002 2.810000e+002 1.000000e+001
    endloop
  endfacet
  facet normal 6.246951e-001 0.000000e+000 0.000000e+000
    outer loop
      vertex   -1.810000e+002 2.730000e+002 0.000000e+000
      vertex   -1.810000e+002 2.810000e+002 1.000000e+001
      vertex   -1.810000e+002 2.730000e+002 1.000000e+001
    endloop
  endfacet
  facet normal 0.000000e+000 -1.000000e+000 0.000000e+000
    outer loop
      vertex   -1.860000e+002 2.730000e+002 1.000000e+001
      vertex   -1.860000e+002 2.730000e+002 0.000000e+000
      vertex   -1.810000e+002 2.730000e+002 1.000000e+001
    endloop
  endfacet
  facet normal 0.000000e+000 -4.472136e-001 -0.000000e+000
    outer loop
      vertex   -1.810000e+002 2.730000e+002 1.000000e+001
      vertex   -1.860000e+002 2.730000e+002 0.000000e+000
      vertex   -1.810000e+002 2.730000e+002 0.000000e+000
    endloop
  endfacet
endsolid
solid ascii
  facet normal -0.000000e+000 7.071068e-001 7.071068e-001
    outer loop
      vertex   -1.510000e+002 2.810000e+002 1.000000e+001
      vertex   -1.460000e+002 2.810000e+002 1.000000e+001
      vertex   -1.510000e+002 2.830000e+002 8.000000e+000
    endloop
  endfacet
  facet normal -0.000000e+000 3.481553e-001 3.481553e-001
    outer loop
      vertex   -1.510000e+002 2.830000e+002 8.000000e+000
      vertex   -1.460000e+002 2.810000e+002 1.000000e+001
      vertex   -1.460000e+002 2.830000e+002 8.000000e+000
    endloop
  endfacet
  facet normal -1.000000e+000 0.000000e+000 0.000000e+000
    outer loop
      vertex   -1.510000e+002 2.730000e+002 1.000000e+001
      vertex   -1.510000e+002 2.810000e+002 1.000000e+001
      vertex   -1.510000e+002 2.730000e+002 0.000000e+000
    endloop
  endfacet
  facet normal -2.195122e-001 0.000000e+000 0.000000e+000
    outer loop
      vertex   -1.510000e+002 2.730000e+002 0.000000e+000
      vertex   -1.510000e+002 2.810000e+002 1.000000e+001
      vertex   -1.510000e+002 2.830000e+002 8.000000e+000
    endloop
  endfacet
  facet normal -6.246951e-001 0.000000e+000 0.000000e+000
    outer loop
      vertex   -1.510000e+002 2.730000e+002 0.000000e+000
      vertex   -1.510000e+002 2.830000e+002 8.000000e+000
      vertex   -1.510000e+002 2.830000e+002 0.000000e+000
    endloop
  endfacet
  facet normal 0.000000e+000 1.000000e+000 0.000000e+000
    outer loop
      vertex   -1.460000e+002 2.830000e+002 8.000000e+000
      vertex   -1.460000e+002 2.830000e+002 0.000000e+000
      vertex   -1.510000e+002 2.830000e+002 8.000000e+000
    endloop
  endfacet
  facet normal 0.000000e+000 5.299990e-001 0.000000e+000
    outer loop
      vertex   -1.510000e+002 2.830000e+002 8.000000e+000
      vertex   -1.460000e+002 2.830000e+002 0.000000e+000
      vertex   -1.510000e+002 2.830000e+002 0.000000e+000
    endloop
  endfacet
  facet normal 0.000000e+000 0.000000e+000 1.000000e+000
    outer loop
      vertex   -1.460000e+002 2.810000e+002 1.000000e+001
      vertex   -1.510000e+002 2.810000e+002 1.000000e+001
      vertex   -1.460000e+002 2.730000e+002 1.000000e+001
    endloop
  endfacet
  facet normal 0.000000e+000 0.000000e+000 8.479983e-001
    outer loop
      vertex   -1.460000e+002 2.730000e+002 1.000000e+001
      vertex   -1.510000e+002 2.810000e+002 1.000000e+001
      vertex   -1.510000e+002 2.730000e+002 1.000000e+001
    endloop
  endfacet
  facet normal 0.000000e+000 0.000000e+000 -1.000000e+000
    outer loop
      vertex   -1.510000e+002 2.830000e+002 0.000000e+000
      vertex   -1.460000e+002 2.830000e+002 0.000000e+000
      vertex   -1.510000e+002 2.730000e+002 0.000000e+000
    endloop
  endfacet
  facet normal 0.000000e+000 0.000000e+000 -8.944272e-001
    outer loop
      vertex   -1.510000e+002 2.730000e+002 0.000000e+000
      vertex   -1.460000e+002 2.830000e+002 0.000000e+000
      vertex   -1.460000e+002 2.730000e+002 0.000000e+000
    endloop
  endfacet
  facet normal 1.000000e+000 0.000000e+000 -0.000000e+000
    outer loop
      vertex   -1.460000e+002 2.830000e+002 0.000000e+000
      vertex   -1.460000e+002 2.830000e+002 8.000000e+000
      vertex   -1.460000e+002 2.730000e+002 0.000000e+000
    endloop
  endfacet
  facet normal 2.195122e-001 0.000000e+000 0.000000e+000
    outer loop
      vertex   -1.460000e+002 2.730000e+002 0.000000e+000
      vertex   -1.460000e+002 2.830000e+002 8.000000e+000
      vertex   -1.460000e+002 2.810000e+002 1.000000e+001
    endloop
  endfacet
  facet normal 6.246951e-001 0.000000e+000 0.000000e+000
    outer loop
      vertex   -1.460000e+002 2.730000e+002 0.000000e+000
      vertex   -1.460000e+002 2.810000e+002 1.000000e+001
      vertex   -1.460000e+002 2.730000e+002 1.000000e+001
    endloop
  endfacet
  facet normal 0.000000e+000 -1.000000e+000 0.000000e+000
    outer loop
      vertex   -1.510000e+002 2.730000e+002 1.000000e+001
      vertex   -1.510000e+002 2.730000e+002 0.000000e+000
      vertex   -1.460000e+002 2.730000e+002 1.000000e+001
    endloop
  endfacet
  facet normal 0.000000e+000 -4.472136e-001 -0.000000e+000
    outer loop
      vertex   -1.460000e+002 2.730000e+002 1.000000e+001
      vertex   -1.510000e+002 2.730000e+002 0.000000e+000
      vertex   -1.460000e+002 2.730000e+002 0.000000e+000
    endloop
  endfacet
endsolid
